<svg width="1440" height="7300" viewBox="0 0 1440 7300" fill="none" xmlns="http://www.w3.org/2000/svg">
<path d="M906.089 645.22C906.089 611.212 933.657 583.644 967.665 583.644C1001.67 583.644 1029.24 611.212 1029.24 645.22C1029.24 679.227 1001.67 706.796 967.665 706.796C933.657 706.796 906.089 679.227 906.089 645.22Z" fill="#0F30F5"/>
<path d="M875.622 568.747C875.622 569.448 875.054 570.016 874.353 570.016C873.652 570.016 873.084 569.448 873.084 568.747C873.084 568.046 873.652 567.478 874.353 567.478C875.054 567.478 875.622 568.046 875.622 568.747Z" fill="white"/>
<path d="M931.529 568.747C931.529 569.448 930.961 570.016 930.26 570.016C929.559 570.016 928.99 569.448 928.99 568.747C928.99 568.046 929.559 567.478 930.26 567.478C930.961 567.478 931.529 568.046 931.529 568.747Z" fill="white"/>
<path d="M987.099 568.747C987.099 569.448 986.531 570.016 985.83 570.016C985.129 570.016 984.561 569.448 984.561 568.747C984.561 568.046 985.129 567.478 985.83 567.478C986.531 567.478 987.099 568.046 987.099 568.747Z" fill="white"/>
<path d="M1042.67 568.747C1042.67 569.448 1042.1 570.016 1041.4 570.016C1040.7 570.016 1040.13 569.448 1040.13 568.747C1040.13 568.046 1040.7 567.478 1041.4 567.478C1042.1 567.478 1042.67 568.046 1042.67 568.747Z" fill="white"/>
<path d="M1098.24 568.747C1098.24 569.448 1097.67 570.016 1096.97 570.016C1096.27 570.016 1095.7 569.448 1095.7 568.747C1095.7 568.046 1096.27 567.478 1096.97 567.478C1097.67 567.478 1098.24 568.046 1098.24 568.747Z" fill="white"/>
<path d="M1153.81 568.747C1153.81 569.448 1153.24 570.016 1152.54 570.016C1151.84 570.016 1151.27 569.448 1151.27 568.747C1151.27 568.046 1151.84 567.478 1152.54 567.478C1153.24 567.478 1153.81 568.046 1153.81 568.747Z" fill="white"/>
<path d="M1209.72 568.747C1209.72 569.448 1209.15 570.016 1208.45 570.016C1207.75 570.016 1207.18 569.448 1207.18 568.747C1207.18 568.046 1207.75 567.478 1208.45 567.478C1209.15 567.478 1209.72 568.046 1209.72 568.747Z" fill="white"/>
<path d="M1265.29 568.747C1265.29 569.448 1264.72 570.016 1264.02 570.016C1263.32 570.016 1262.75 569.448 1262.75 568.747C1262.75 568.046 1263.32 567.478 1264.02 567.478C1264.72 567.478 1265.29 568.046 1265.29 568.747Z" fill="white"/>
<path d="M1320.86 568.747C1320.86 569.448 1320.29 570.016 1319.59 570.016C1318.89 570.016 1318.32 569.448 1318.32 568.747C1318.32 568.046 1318.89 567.478 1319.59 567.478C1320.29 567.478 1320.86 568.046 1320.86 568.747Z" fill="white"/>
<path d="M875.622 624.317C875.622 625.018 875.054 625.587 874.353 625.587C873.652 625.587 873.084 625.018 873.084 624.317C873.084 623.616 873.652 623.048 874.353 623.048C875.054 623.048 875.622 623.616 875.622 624.317Z" fill="white"/>
<path d="M931.529 624.317C931.529 625.018 930.961 625.587 930.26 625.587C929.559 625.587 928.99 625.018 928.99 624.317C928.99 623.616 929.559 623.048 930.26 623.048C930.961 623.048 931.529 623.616 931.529 624.317Z" fill="white"/>
<path d="M987.099 624.317C987.099 625.018 986.531 625.587 985.83 625.587C985.129 625.587 984.561 625.018 984.561 624.317C984.561 623.616 985.129 623.048 985.83 623.048C986.531 623.048 987.099 623.616 987.099 624.317Z" fill="white"/>
<path d="M1042.67 624.317C1042.67 625.018 1042.1 625.587 1041.4 625.587C1040.7 625.587 1040.13 625.018 1040.13 624.317C1040.13 623.616 1040.7 623.048 1041.4 623.048C1042.1 623.048 1042.67 623.616 1042.67 624.317Z" fill="white"/>
<path d="M1098.24 624.317C1098.24 625.018 1097.67 625.587 1096.97 625.587C1096.27 625.587 1095.7 625.018 1095.7 624.317C1095.7 623.616 1096.27 623.048 1096.97 623.048C1097.67 623.048 1098.24 623.616 1098.24 624.317Z" fill="white"/>
<path d="M1153.81 624.317C1153.81 625.018 1153.24 625.587 1152.54 625.587C1151.84 625.587 1151.27 625.018 1151.27 624.317C1151.27 623.616 1151.84 623.048 1152.54 623.048C1153.24 623.048 1153.81 623.616 1153.81 624.317Z" fill="white"/>
<path d="M1209.72 624.317C1209.72 625.018 1209.15 625.587 1208.45 625.587C1207.75 625.587 1207.18 625.018 1207.18 624.317C1207.18 623.616 1207.75 623.048 1208.45 623.048C1209.15 623.048 1209.72 623.616 1209.72 624.317Z" fill="white"/>
<path d="M1265.29 624.317C1265.29 625.018 1264.72 625.587 1264.02 625.587C1263.32 625.587 1262.75 625.018 1262.75 624.317C1262.75 623.616 1263.32 623.048 1264.02 623.048C1264.72 623.048 1265.29 623.616 1265.29 624.317Z" fill="white"/>
<path d="M1320.86 624.317C1320.86 625.018 1320.29 625.587 1319.59 625.587C1318.89 625.587 1318.32 625.018 1318.32 624.317C1318.32 623.616 1318.89 623.048 1319.59 623.048C1320.29 623.048 1320.86 623.616 1320.86 624.317Z" fill="white"/>
<path d="M875.622 679.889C875.622 680.589 875.054 681.158 874.353 681.158C873.652 681.158 873.084 680.589 873.084 679.889C873.084 679.188 873.652 678.619 874.353 678.619C875.054 678.619 875.622 679.188 875.622 679.889Z" fill="white"/>
<path d="M931.529 679.889C931.529 680.589 930.961 681.158 930.26 681.158C929.559 681.158 928.99 680.589 928.99 679.889C928.99 679.188 929.559 678.619 930.26 678.619C930.961 678.619 931.529 679.188 931.529 679.889Z" fill="white"/>
<path d="M987.099 679.889C987.099 680.589 986.531 681.158 985.83 681.158C985.129 681.158 984.561 680.589 984.561 679.889C984.561 679.188 985.129 678.619 985.83 678.619C986.531 678.619 987.099 679.188 987.099 679.889Z" fill="white"/>
<path d="M1042.67 679.889C1042.67 680.589 1042.1 681.158 1041.4 681.158C1040.7 681.158 1040.13 680.589 1040.13 679.889C1040.13 679.188 1040.7 678.619 1041.4 678.619C1042.1 678.619 1042.67 679.188 1042.67 679.889Z" fill="white"/>
<path d="M1153.81 679.889C1153.81 680.589 1153.24 681.158 1152.54 681.158C1151.84 681.158 1151.27 680.589 1151.27 679.889C1151.27 679.188 1151.84 678.619 1152.54 678.619C1153.24 678.619 1153.81 679.188 1153.81 679.889Z" fill="white"/>
<path d="M1209.72 679.889C1209.72 680.589 1209.15 681.158 1208.45 681.158C1207.75 681.158 1207.18 680.589 1207.18 679.889C1207.18 679.188 1207.75 678.619 1208.45 678.619C1209.15 678.619 1209.72 679.188 1209.72 679.889Z" fill="white"/>
<path d="M1265.29 679.889C1265.29 680.589 1264.72 681.158 1264.02 681.158C1263.32 681.158 1262.75 680.589 1262.75 679.889C1262.75 679.188 1263.32 678.619 1264.02 678.619C1264.72 678.619 1265.29 679.188 1265.29 679.889Z" fill="white"/>
<path d="M1320.86 679.889C1320.86 680.589 1320.29 681.158 1319.59 681.158C1318.89 681.158 1318.32 680.589 1318.32 679.889C1318.32 679.188 1318.89 678.619 1319.59 678.619C1320.29 678.619 1320.86 679.188 1320.86 679.889Z" fill="white"/>
<path d="M875.622 735.627C875.622 736.328 875.054 736.896 874.353 736.896C873.652 736.896 873.084 736.328 873.084 735.627C873.084 734.926 873.652 734.357 874.353 734.357C875.054 734.357 875.622 734.926 875.622 735.627Z" fill="white"/>
<path d="M931.529 735.627C931.529 736.328 930.961 736.896 930.26 736.896C929.559 736.896 928.99 736.328 928.99 735.627C928.99 734.926 929.559 734.357 930.26 734.357C930.961 734.357 931.529 734.926 931.529 735.627Z" fill="white"/>
<path d="M987.099 735.627C987.099 736.328 986.531 736.896 985.83 736.896C985.129 736.896 984.561 736.328 984.561 735.627C984.561 734.926 985.129 734.357 985.83 734.357C986.531 734.357 987.099 734.926 987.099 735.627Z" fill="white"/>
<path d="M1042.67 735.627C1042.67 736.328 1042.1 736.896 1041.4 736.896C1040.7 736.896 1040.13 736.328 1040.13 735.627C1040.13 734.926 1040.7 734.357 1041.4 734.357C1042.1 734.357 1042.67 734.926 1042.67 735.627Z" fill="white"/>
<path d="M1098.24 735.627C1098.24 736.328 1097.67 736.896 1096.97 736.896C1096.27 736.896 1095.7 736.328 1095.7 735.627C1095.7 734.926 1096.27 734.357 1096.97 734.357C1097.67 734.357 1098.24 734.926 1098.24 735.627Z" fill="white"/>
<path d="M1153.81 735.627C1153.81 736.328 1153.24 736.896 1152.54 736.896C1151.84 736.896 1151.27 736.328 1151.27 735.627C1151.27 734.926 1151.84 734.357 1152.54 734.357C1153.24 734.357 1153.81 734.926 1153.81 735.627Z" fill="white"/>
<path d="M1209.72 735.627C1209.72 736.328 1209.15 736.896 1208.45 736.896C1207.75 736.896 1207.18 736.328 1207.18 735.627C1207.18 734.926 1207.75 734.357 1208.45 734.357C1209.15 734.357 1209.72 734.926 1209.72 735.627Z" fill="white"/>
<path d="M1265.29 735.627C1265.29 736.328 1264.72 736.896 1264.02 736.896C1263.32 736.896 1262.75 736.328 1262.75 735.627C1262.75 734.926 1263.32 734.357 1264.02 734.357C1264.72 734.357 1265.29 734.926 1265.29 735.627Z" fill="white"/>
<path d="M1320.86 735.627C1320.86 736.328 1320.29 736.896 1319.59 736.896C1318.89 736.896 1318.32 736.328 1318.32 735.627C1318.32 734.926 1318.89 734.357 1319.59 734.357C1320.29 734.357 1320.86 734.926 1320.86 735.627Z" fill="white"/>
<path d="M875.622 791.198C875.622 791.899 875.054 792.468 874.353 792.468C873.652 792.468 873.084 791.899 873.084 791.198C873.084 790.497 873.652 789.928 874.353 789.928C875.054 789.928 875.622 790.497 875.622 791.198Z" fill="white"/>
<path d="M931.529 791.198C931.529 791.899 930.961 792.468 930.26 792.468C929.559 792.468 928.99 791.899 928.99 791.198C928.99 790.497 929.559 789.928 930.26 789.928C930.961 789.928 931.529 790.497 931.529 791.198Z" fill="white"/>
<path d="M1209.72 791.198C1209.72 791.899 1209.15 792.468 1208.45 792.468C1207.75 792.468 1207.18 791.899 1207.18 791.198C1207.18 790.497 1207.75 789.928 1208.45 789.928C1209.15 789.928 1209.72 790.497 1209.72 791.198Z" fill="white"/>
<path d="M1265.29 791.198C1265.29 791.899 1264.72 792.468 1264.02 792.468C1263.32 792.468 1262.75 791.899 1262.75 791.198C1262.75 790.497 1263.32 789.928 1264.02 789.928C1264.72 789.928 1265.29 790.497 1265.29 791.198Z" fill="white"/>
<path d="M1320.86 791.198C1320.86 791.899 1320.29 792.468 1319.59 792.468C1318.89 792.468 1318.32 791.899 1318.32 791.198C1318.32 790.497 1318.89 789.928 1319.59 789.928C1320.29 789.928 1320.86 790.497 1320.86 791.198Z" fill="white"/>
<path d="M875.622 846.936C875.622 847.637 875.054 848.205 874.353 848.205C873.652 848.205 873.084 847.637 873.084 846.936C873.084 846.235 873.652 845.667 874.353 845.667C875.054 845.667 875.622 846.235 875.622 846.936Z" fill="white"/>
<path d="M931.529 846.936C931.529 847.637 930.961 848.205 930.26 848.205C929.559 848.205 928.99 847.637 928.99 846.936C928.99 846.235 929.559 845.667 930.26 845.667C930.961 845.667 931.529 846.235 931.529 846.936Z" fill="white"/>
<path d="M987.099 846.936C987.099 847.637 986.531 848.205 985.83 848.205C985.129 848.205 984.561 847.637 984.561 846.936C984.561 846.235 985.129 845.667 985.83 845.667C986.531 845.667 987.099 846.235 987.099 846.936Z" fill="white"/>
<path d="M1042.67 846.936C1042.67 847.637 1042.1 848.205 1041.4 848.205C1040.7 848.205 1040.13 847.637 1040.13 846.936C1040.13 846.235 1040.7 845.667 1041.4 845.667C1042.1 845.667 1042.67 846.235 1042.67 846.936Z" fill="white"/>
<path d="M1098.24 846.936C1098.24 847.637 1097.67 848.205 1096.97 848.205C1096.27 848.205 1095.7 847.637 1095.7 846.936C1095.7 846.235 1096.27 845.667 1096.97 845.667C1097.67 845.667 1098.24 846.235 1098.24 846.936Z" fill="white"/>
<path d="M1153.81 846.936C1153.81 847.637 1153.24 848.205 1152.54 848.205C1151.84 848.205 1151.27 847.637 1151.27 846.936C1151.27 846.235 1151.84 845.667 1152.54 845.667C1153.24 845.667 1153.81 846.235 1153.81 846.936Z" fill="white"/>
<path d="M1209.72 846.936C1209.72 847.637 1209.15 848.205 1208.45 848.205C1207.75 848.205 1207.18 847.637 1207.18 846.936C1207.18 846.235 1207.75 845.667 1208.45 845.667C1209.15 845.667 1209.72 846.235 1209.72 846.936Z" fill="white"/>
<path d="M1265.29 846.936C1265.29 847.637 1264.72 848.205 1264.02 848.205C1263.32 848.205 1262.75 847.637 1262.75 846.936C1262.75 846.235 1263.32 845.667 1264.02 845.667C1264.72 845.667 1265.29 846.235 1265.29 846.936Z" fill="white"/>
<path d="M1320.86 846.936C1320.86 847.637 1320.29 848.205 1319.59 848.205C1318.89 848.205 1318.32 847.637 1318.32 846.936C1318.32 846.235 1318.89 845.667 1319.59 845.667C1320.29 845.667 1320.86 846.235 1320.86 846.936Z" fill="white"/>
<path d="M1209.72 902.508C1209.72 903.208 1209.15 903.777 1208.45 903.777C1207.75 903.777 1207.18 903.208 1207.18 902.508C1207.18 901.806 1207.75 901.238 1208.45 901.238C1209.15 901.238 1209.72 901.806 1209.72 902.508Z" fill="white"/>
<path d="M1265.29 902.508C1265.29 903.208 1264.72 903.777 1264.02 903.777C1263.32 903.777 1262.75 903.208 1262.75 902.508C1262.75 901.806 1263.32 901.238 1264.02 901.238C1264.72 901.238 1265.29 901.806 1265.29 902.508Z" fill="white"/>
<path d="M1320.86 902.508C1320.86 903.208 1320.29 903.777 1319.59 903.777C1318.89 903.777 1318.32 903.208 1318.32 902.508C1318.32 901.806 1318.89 901.238 1319.59 901.238C1320.29 901.238 1320.86 901.806 1320.86 902.508Z" fill="white"/>
<path fill-rule="evenodd" clip-rule="evenodd" d="M888.23 822.933L874.499 836.665L860.767 822.934L850.518 833.182L864.25 846.913L850.518 860.645L860.767 870.893L874.499 857.162L888.23 870.893L898.478 860.645L884.747 846.913L898.479 833.182L888.23 822.933Z" stroke="#0F30F5" strokeWidth="0.00253004" strokeMiterlimit="2"/>
<path d="M1106.79 1081.87C1030.64 1081.87 968.904 1020.14 968.904 943.986C968.904 867.832 1030.64 806.098 1106.79 806.098C1182.95 806.098 1244.68 867.832 1244.68 943.986C1244.68 1020.14 1182.95 1081.87 1106.79 1081.87ZM1106.79 742.609C995.576 742.609 905.416 832.769 905.416 943.986C905.416 1055.2 995.576 1145.36 1106.79 1145.36C1218.01 1145.36 1308.17 1055.2 1308.17 943.986C1308.17 832.769 1218.01 742.609 1106.79 742.609Z" fill="#0F30F5"/>
<path d="M1265.27 606.54C1237.65 606.54 1215.26 584.148 1215.26 556.526C1215.26 528.904 1237.65 506.512 1265.27 506.512C1292.89 506.512 1315.28 528.904 1315.28 556.526C1315.28 584.148 1292.89 606.54 1265.27 606.54ZM1265.27 456C1209.75 456 1164.74 501.007 1164.74 556.526C1164.74 612.045 1209.75 657.052 1265.27 657.052C1320.79 657.052 1365.79 612.045 1365.79 556.526C1365.79 501.007 1320.79 456 1265.27 456Z" fill="#0F30F5"/>
<path fill-rule="evenodd" clip-rule="evenodd" d="M923.581 657.028C923.581 663.518 913.935 668.779 902.037 668.779C890.138 668.779 880.493 663.518 880.493 657.028C880.493 650.537 890.138 645.276 902.037 645.276C913.935 645.276 923.581 650.537 923.581 657.028Z" stroke="white" strokeWidth="0.000632511" strokeMiterlimit="2"/>
<path d="M1383.62 693.942L1358.98 718.576L1334.35 693.942L1315.96 712.328L1340.59 736.962L1315.96 761.596L1334.35 779.981L1358.98 755.348L1383.62 779.981L1402 761.596L1377.37 736.962L1402 712.328L1383.62 693.942Z" fill="#0F30F5"/>
</svg>
