<?xml version="1.0" standalone="no"?>
<!DOCTYPE svg PUBLIC "-//W3C//DTD SVG 20010904//EN"
 "http://www.w3.org/TR/2001/REC-SVG-20010904/DTD/svg10.dtd">
<svg version="1.0" xmlns="http://www.w3.org/2000/svg"
 width="700.000000pt" height="700.000000pt" viewBox="0 0 700.000000 700.000000"
 preserveAspectRatio="xMidYMid meet">
<metadata>
Created by potrace 1.11, written by Peter Selinger 2001-2013
</metadata>
<g transform="translate(0.000000,700.000000) scale(0.100000,-0.100000)"
fill="#000000" stroke="none">
<path d="M3305 6980 c-109 -23 -188 -51 -275 -98 -429 -229 -629 -726 -479
-1192 48 -149 129 -280 245 -397 148 -147 327 -240 531 -277 119 -22 305 -14
424 17 328 86 596 338 698 657 21 63 24 75 38 150 10 48 9 276 0 325 -64 335
-264 598 -564 741 -178 84 -427 114 -618 74z m396 -258 c91 -27 147 -53 216
-100 211 -146 322 -350 328 -605 7 -269 -114 -498 -344 -648 -40 -27 -78 -49
-83 -49 -5 0 -28 -9 -51 -19 -114 -52 -313 -64 -454 -27 -204 53 -388 202
-486 391 -18 36 -55 146 -65 195 -14 68 -7 262 12 330 75 277 290 480 578 545
84 20 261 13 349 -13z"/>
<path d="M785 4475 c-113 -26 -184 -52 -265 -97 -220 -123 -386 -322 -469
-565 -80 -232 -59 -529 53 -753 135 -271 363 -454 660 -532 102 -26 298 -33
406 -13 311 56 580 255 720 533 80 160 110 293 105 477 -5 264 -101 491 -284
676 -123 124 -273 214 -431 257 -115 32 -126 34 -265 37 -108 2 -147 -1 -230
-20z m387 -247 c146 -36 253 -96 356 -198 397 -395 234 -1069 -300 -1244 -74
-24 -96 -28 -208 -31 -364 -13 -680 236 -754 595 -14 70 -16 239 -3 295 54
226 180 401 368 509 56 32 176 75 233 83 22 3 42 7 44 8 13 12 193 0 264 -17z"/>
<path d="M3302 4479 c-320 -67 -573 -268 -712 -564 -99 -213 -115 -501 -40
-724 87 -259 266 -466 508 -586 148 -74 263 -100 442 -100 155 0 247 17 387
74 55 22 187 99 232 135 53 43 148 143 190 200 70 94 146 262 166 362 3 16 8
45 12 64 9 47 9 275 0 325 -60 312 -235 559 -507 712 -84 48 -169 78 -310 109
-14 3 -81 7 -150 9 -97 3 -146 -1 -218 -16z m402 -258 c86 -26 198 -82 256
-129 59 -48 138 -132 146 -154 3 -10 9 -18 14 -18 10 0 72 -127 94 -191 85
-258 11 -563 -184 -758 -92 -90 -223 -167 -335 -195 -16 -4 -39 -10 -50 -13
-42 -10 -222 -11 -275 -2 -259 49 -478 229 -569 469 -52 137 -63 322 -27 459
62 231 238 429 459 511 142 53 335 62 471 21z"/>
<path d="M5805 4480 c-163 -35 -281 -88 -408 -184 -346 -262 -483 -718 -340
-1131 67 -191 216 -381 391 -498 93 -62 243 -126 328 -141 16 -3 52 -10 79
-15 50 -10 269 -8 315 3 14 3 48 11 75 17 165 38 335 137 467 271 145 147 227
305 274 523 3 17 8 85 9 152 13 471 -293 873 -758 994 -116 31 -310 34 -432 9z
m383 -254 c276 -73 488 -297 546 -576 19 -93 15 -250 -8 -340 -63 -238 -250
-439 -484 -519 -90 -31 -124 -36 -242 -35 -148 0 -210 14 -335 75 -204 101
-344 282 -399 520 -19 79 -15 254 8 339 35 130 117 268 215 358 102 95 257
173 376 189 22 3 42 7 45 10 11 10 218 -5 278 -21z"/>
<path d="M889 1995 c-2 -1 -24 -6 -48 -9 -334 -45 -640 -292 -770 -618 -49
-123 -64 -200 -66 -345 -7 -346 132 -623 420 -841 95 -71 261 -141 400 -166
78 -15 287 -16 345 -2 14 3 48 11 75 17 271 63 535 280 659 542 109 231 124
509 41 754 -30 90 -99 214 -162 292 -196 246 -473 379 -789 379 -56 1 -104 -1
-105 -3z m311 -273 c215 -64 392 -214 478 -402 52 -115 67 -189 66 -325 0
-114 -4 -141 -28 -215 -82 -254 -274 -436 -531 -506 -97 -26 -274 -26 -370 0
-284 78 -488 293 -550 579 -13 62 -14 243 -1 301 64 280 276 502 546 569 98
25 97 25 215 22 73 -2 132 -10 175 -23z"/>
<path d="M5888 1995 c-1 -1 -23 -6 -47 -9 -24 -3 -78 -15 -120 -27 -423 -118
-721 -516 -718 -958 0 -57 4 -125 9 -150 5 -25 11 -59 14 -75 27 -151 133
-344 260 -472 309 -314 766 -391 1160 -197 157 77 325 231 411 378 13 22 57
112 79 161 54 121 77 393 47 539 -101 484 -501 813 -989 813 -56 1 -104 -1
-106 -3z m237 -256 c158 -29 293 -99 407 -213 286 -286 289 -757 5 -1046 -142
-146 -310 -220 -512 -226 -333 -10 -610 179 -733 501 -59 154 -50 387 23 551
97 219 321 395 550 431 17 3 31 6 33 8 7 6 183 2 227 -6z"/>
</g>
</svg>
